<svg width="271" height="271" viewBox="0 0 271 271" fill="none" xmlns="http://www.w3.org/2000/svg">
<path d="M194.984 126.874C197.223 126.876 199.37 127.767 200.952 129.351C202.534 130.935 203.422 133.083 203.421 135.322C203.419 137.561 202.528 139.708 200.944 141.29C199.359 142.872 197.211 143.76 194.972 143.758L97.2219 143.758L130.251 176.787C131.833 178.37 132.722 180.516 132.722 182.754C132.722 184.991 131.833 187.137 130.251 188.72C128.669 190.302 126.522 191.191 124.285 191.191C122.047 191.191 119.901 190.302 118.318 188.72L70.8871 141.288C69.3047 139.706 68.4158 137.56 68.4158 135.322C68.4158 133.084 69.3047 130.938 70.8871 129.356L118.318 81.9246C119.901 80.3422 122.047 79.4533 124.285 79.4533C126.522 79.4533 128.669 80.3422 130.251 81.9246C131.833 83.5069 132.722 85.653 132.722 87.8908C132.722 90.1285 131.833 92.2747 130.251 93.857L97.2219 126.886L194.984 126.874Z" fill="#aeccff"/>
<path fill-rule="evenodd" clip-rule="evenodd" d="M135.919 270.919C171.723 270.919 206.061 256.696 231.378 231.378C256.696 206.061 270.919 171.723 270.919 135.919C270.919 100.115 256.696 65.7768 231.378 40.4594C206.061 15.142 171.723 0.918823 135.919 0.918823C100.115 0.918823 65.7768 15.142 40.4594 40.4594C15.142 65.7768 0.918823 100.115 0.918823 135.919C0.918823 171.723 15.142 206.061 40.4594 231.378C65.7768 256.696 100.115 270.919 135.919 270.919ZM17.7938 135.919C17.7938 104.59 30.2391 74.5446 52.3918 52.3918C74.5446 30.2391 104.59 17.7938 135.919 17.7938C167.247 17.7938 197.293 30.2391 219.446 52.3918C241.599 74.5446 254.044 104.59 254.044 135.919C254.044 167.248 241.599 197.293 219.446 219.446C197.293 241.599 167.247 254.044 135.919 254.044C104.59 254.044 74.5446 241.599 52.3918 219.446C30.2391 197.293 17.7938 167.248 17.7938 135.919Z" fill="#aeccff"/>
</svg>
